<?xml version="1.0" encoding="UTF-8" standalone="no"?>
<!-- Created with Inkscape (http://www.inkscape.org/) -->

<svg
   version="1.1"
   id="svg848"
   width="1146"
   height="687"
   viewBox="0 0 1146 687"
   sodipodi:docname="Helix_image.png"
   xmlns:inkscape="http://www.inkscape.org/namespaces/inkscape"
   xmlns:sodipodi="http://sodipodi.sourceforge.net/DTD/sodipodi-0.dtd"
   xmlns="http://www.w3.org/2000/svg"
   xmlns:svg="http://www.w3.org/2000/svg">
  <defs
     id="defs852" />
  <sodipodi:namedview
     id="namedview850"
     pagecolor="#ffffff"
     bordercolor="#cccccc"
     borderopacity="1"
     inkscape:pageshadow="0"
     inkscape:pageopacity="1"
     inkscape:pagecheckerboard="0"
     showgrid="false" />
  <g
     inkscape:groupmode="layer"
     inkscape:label="Image"
     id="g854">
    <path
       style="fill:#252f3b;fill-opacity:1;stroke:#000000;stroke-width:0;stroke-miterlimit:4;stroke-dasharray:none;stroke-opacity:1"
       id="path4942"
       d="m 395.59653,282.94916 c 0.40711,-1.28655 1.02715,-2.51215 1.60347,-3.73372 0.90289,-1.81568 1.94584,-3.55427 2.97824,-5.29766 1.00242,-1.69709 2.19515,-3.26626 3.58885,-4.65757 1.36598,-1.19771 2.86779,-2.25113 4.43657,-3.16638 1.72642,-0.96296 3.66054,-1.39166 5.58463,-1.75153 1.98227,-0.36379 3.97857,-0.5209 5.99051,-0.46574 1.97175,0.0308 3.90962,0.39515 5.75165,1.08886 2.58959,1.0072 4.9633,2.42766 7.28072,3.94229 2.71475,1.66597 5.49727,3.22274 8.31133,4.71438 2.9181,1.43403 5.89182,2.74119 8.92044,3.92216 2.78337,1.2119 5.57148,2.44913 8.22036,3.93595 2.44667,1.32909 4.75789,2.87858 7.05238,4.44905 2.35765,1.48523 4.57541,3.1729 6.88464,4.72937 2.70333,1.85188 5.35772,3.77336 8.04718,5.64521 3.10165,2.3688 6.42029,4.4326 9.65915,6.60693 2.99067,1.87601 5.85406,3.93371 8.74929,5.94804 2.80069,2.04103 5.44787,4.27144 8.02399,6.58602 2.33894,2.21501 4.46662,4.64124 6.5216,7.11832 2.12485,2.66737 4.16366,5.39996 6.25897,8.09012 2.24656,2.73397 4.23591,5.66258 6.29719,8.53526 2.42925,3.18344 4.7984,6.41154 7.15934,9.64566 2.17136,2.80874 4.16509,5.75039 6.37444,8.52917 2.23446,2.87837 4.2848,5.87338 6.69616,8.61097 2.40495,2.57838 4.73321,5.21541 6.88074,8.01126 1.94173,2.37243 3.73932,4.85703 5.63678,7.26475 2.02396,2.41225 3.85031,4.97519 5.7142,7.50955 2.22831,2.99375 4.4738,5.97513 6.67335,8.98948 2.10706,2.82279 4.0613,5.74891 5.96304,8.71172 2.06167,3.05284 3.75889,6.32718 5.51873,9.55749 1.69134,3.38485 3.29819,6.80881 5.04387,10.16712 1.67504,3.27964 3.30739,6.57949 4.78277,9.95418 1.51907,3.58636 2.89563,7.22973 4.40569,10.81988 1.41322,3.53816 2.58019,7.17336 3.70798,10.81134 1.04211,3.2892 1.86122,6.6316 2.62283,9.99413 0.80628,3.68548 1.20048,7.44224 1.55397,11.19293 0.30278,3.34662 0.45013,6.70389 0.56529,10.06128 0.0935,2.94585 0.1404,5.89289 0.17815,8.8399 0.0166,1.51762 0.0444,0.95613 -0.0703,2.43773 -0.0297,0.38384 -0.12248,1.53503 -0.0971,1.15087 0.85772,-13.00449 0.51623,-7.50943 0.30517,-4.64217 -1.54923,22.79607 -0.26761,4.02584 -0.17728,2.41332 0.0223,-0.39892 -0.0882,0.7942 -0.13518,1.19097 -0.13472,1.13857 -0.27889,2.27574 -0.40883,3.4149 -0.22841,2.07803 -0.7454,4.10639 -1.26237,6.12707 -0.57542,2.06807 -1.18687,4.12521 -1.74219,6.1988 -0.71106,2.20395 -1.38831,4.41405 -1.99362,6.64953 -0.70026,2.82792 -1.75099,5.54761 -2.78605,8.2652 -1.54606,4.06253 -3.09656,8.12554 -4.88524,12.08832 -1.56309,3.68113 -3.61336,7.11649 -5.72692,10.50067 -2.2762,3.45435 -4.68074,6.82047 -7.04996,10.21081 -2.09695,2.94481 -4.27836,5.8291 -6.55291,8.63894 -1.58224,2.10282 -3.42478,3.96854 -5.32727,5.77685 -3.50736,3.01567 -7.09994,5.9339 -10.665,8.8819 -4.30936,3.58162 -8.72138,7.02859 -13.30161,10.25623 -4.48109,3.19169 -9.03989,6.26687 -13.62276,9.30902 -3.74991,2.45752 -7.56169,4.82285 -11.41207,7.11925 -5.75366,3.51654 -11.45586,7.11509 -17.14735,10.7309 -5.55541,3.54154 -11.20379,6.94252 -16.96814,10.13335 -3.65356,2.03198 -7.54187,3.53751 -11.56266,4.64846 -3.02465,0.79145 -6.1213,1.22805 -9.22344,1.57243 -2.49945,0.26783 -5.00952,0.40479 -7.52028,0.50788 -1.48039,0.0575 -2.96152,0.0911 -4.44265,0.12194 0,0 -0.46515,8.31252 -0.46515,8.31252 v 0 c 1.49022,-0.0374 2.98041,-0.0785 4.46968,-0.14471 2.54069,-0.1173 5.08288,-0.24792 7.61024,-0.54423 3.16586,-0.37686 6.32863,-0.83084 9.41495,-1.65182 4.13719,-1.12809 8.12286,-2.69819 11.85996,-4.82067 5.75848,-3.29614 11.40686,-6.78533 17.02488,-10.31418 5.66768,-3.56672 11.32157,-7.15501 17.11452,-10.51752 3.89167,-2.26203 7.78542,-4.53324 11.48882,-7.09709 4.5388,-3.13456 9.13052,-6.19294 13.6399,-9.37091 4.62067,-3.21746 9.0408,-6.69427 13.39535,-10.26306 3.55125,-2.91767 7.12548,-5.80589 10.75724,-8.62224 1.95496,-1.81762 3.93998,-3.61593 5.49078,-5.80924 2.32089,-2.84147 4.48977,-5.80493 6.63622,-8.77949 2.33817,-3.40488 4.80926,-6.7169 7.09917,-10.15587 2.21411,-3.37272 4.26561,-6.87811 5.88647,-10.57763 1.85794,-3.92408 3.38858,-7.98897 4.96975,-12.03055 1.05618,-2.67627 2.20847,-5.33738 2.91794,-8.13129 0.66537,-2.22087 1.13752,-4.50156 2.0007,-6.66295 0.59119,-2.05635 1.13368,-4.12399 1.74231,-6.17527 0.6158,-2.02254 1.08004,-4.09339 1.46472,-6.17132 0.15752,-1.54146 0.41814,-3.08233 0.54506,-4.62512 0.44856,-5.45236 1.24227,-16.86232 0.22096,-2.40852 0.33883,-5.02074 0.97097,-10.03466 0.88073,-15.07083 -0.0522,-2.92916 -0.11649,-5.85821 -0.22286,-8.78597 -0.13606,-3.35456 -0.30392,-6.70891 -0.64853,-10.04972 -0.39945,-3.77089 -0.8472,-7.5449 -1.69582,-11.24604 -0.76259,-3.37208 -1.6818,-6.70038 -2.72778,-9.99618 -1.16799,-3.63615 -2.32783,-7.2819 -3.82291,-10.80026 -1.49489,-3.62203 -2.8589,-7.2968 -4.42073,-10.89111 -1.52911,-3.34948 -3.16175,-6.64915 -4.86186,-9.9152 -1.72921,-3.38387 -3.28135,-6.85399 -5.06459,-10.20973 -1.78178,-3.25139 -3.54936,-6.51687 -5.60059,-9.60947 -1.92669,-2.95601 -3.93401,-5.8576 -6.04655,-8.68453 -2.23782,-2.99334 -4.43455,-6.0149 -6.65806,-9.01909 -1.84828,-2.57005 -3.73638,-5.10917 -5.75158,-7.55224 -1.88333,-2.41065 -3.67593,-4.89153 -5.63749,-7.24042 -2.19085,-2.77054 -4.58071,-5.36603 -6.94786,-7.98598 -2.34133,-2.77328 -4.39075,-5.76333 -6.63327,-8.61504 -2.14292,-2.80546 -4.19023,-5.68385 -6.34686,-8.47951 -2.36808,-3.22404 -4.74393,-6.44221 -7.14139,-9.64449 -2.04734,-2.9133 -4.07002,-5.8475 -6.33817,-8.59661 -2.09611,-2.70925 -4.1545,-5.44791 -6.30103,-8.11794 -2.11189,-2.49053 -4.28051,-4.94393 -6.70068,-7.14263 -2.63001,-2.31008 -5.33214,-4.54099 -8.16703,-6.59685 -2.89003,-2.03109 -5.79961,-4.02884 -8.78192,-5.92437 -3.2484,-2.13922 -6.53888,-4.22565 -9.62688,-6.59519 -2.67976,-1.91518 -5.32225,-3.88285 -8.05214,-5.72736 -2.29037,-1.59246 -4.53332,-3.2532 -6.88294,-4.75956 -2.32707,-1.57772 -4.69469,-3.09738 -7.17306,-4.42994 -2.71301,-1.46935 -5.52969,-2.75355 -8.38437,-3.92227 -2.98857,-1.17506 -5.91572,-2.49603 -8.77657,-3.95604 -2.78298,-1.46101 -5.55248,-2.96044 -8.20314,-4.65226 -2.40117,-1.57128 -4.87121,-3.03619 -7.5451,-4.10221 -1.97799,-0.70748 -4.05032,-1.0769 -6.15427,-1.11635 -2.09865,-0.0616 -4.18305,0.0606 -6.25198,0.4443 -2.04994,0.36884 -4.11859,0.80161 -5.99555,1.73862 -1.68365,0.90424 -3.24754,2.00204 -4.75521,3.17266 -1.51277,1.39553 -2.82977,2.9508 -3.9167,4.70575 -1.06491,1.73837 -2.09913,3.49326 -3.08287,5.27848 -0.62164,1.19395 -1.15748,2.44151 -1.79381,3.61767 0,0 1.08456,8.42573 1.08456,8.42573 z" />
    <path
       style="fill:#252f3b;fill-opacity:1;stroke:#000000;stroke-width:0;stroke-miterlimit:4;stroke-dasharray:none;stroke-opacity:1"
       id="path4944"
       d="m 364.41602,415.01855 c 1.43267,-0.87958 3.26389,-0.95302 4.89519,-1.14043 2.64163,-0.34441 5.27579,-0.1808 7.86211,0.41656 2.53108,0.54578 4.67834,1.88399 6.79056,3.30481 2.27228,1.88364 4.21245,4.13905 6.34008,6.18502 2.33044,2.21699 4.81794,4.2644 7.3023,6.30525 2.21034,1.9846 4.75766,3.48104 7.27213,5.02976 2.35545,1.42057 4.84717,2.60418 7.34135,3.75878 2.61902,1.02836 5.33661,1.78539 8.01492,2.64476 2.53317,0.87838 5.05078,1.80172 7.56011,2.74692 2.32435,0.83012 4.61864,1.73837 6.96392,2.50945 3.59493,0.86693 7.12669,1.95175 10.67365,2.98941 4.0632,1.10718 8.19216,1.95659 12.31631,2.80169 5.31654,0.91334 10.6492,1.72996 15.9767,2.57652 5.51905,0.78359 11.04891,1.48719 16.57426,2.22593 6.05924,0.70302 12.14609,1.14868 18.22909,1.5913 4.45038,0.431 8.9187,0.37686 13.38212,0.28561 4.64911,-0.0399 9.28178,-0.41108 13.89457,-0.96642 4.50659,-0.5817 8.93462,-1.61921 13.38028,-2.53534 3.9974,-0.85601 7.92253,-2.01173 11.80993,-3.26812 4.3682,-1.54411 8.73688,-3.08441 13.04539,-4.78878 4.51147,-1.83389 9.01135,-3.6944 13.512,-5.55416 4.94416,-2.00948 9.82354,-4.17072 14.71795,-6.2969 3.94197,-1.64752 7.73482,-3.58619 11.40625,-5.76384 3.90205,-2.43037 7.6081,-5.15565 11.39818,-7.75353 3.76643,-2.58413 7.40553,-5.34519 11.11221,-8.01318 3.14693,-2.15828 6.1966,-4.44974 9.26646,-6.71422 2.50467,-1.79507 4.85418,-3.79266 7.15614,-5.83768 2.11112,-1.90037 4.02454,-4.00858 5.80702,-6.2165 1.82133,-2.22152 3.67432,-4.41643 5.45884,-6.66811 1.57116,-2.10158 3.26197,-4.10916 4.83685,-6.20739 1.51286,-2.1808 3.13133,-4.28183 4.72037,-6.40606 1.72165,-2.1887 3.13744,-4.56172 4.43502,-7.01895 1.23474,-2.45419 2.33314,-4.97603 3.41665,-7.5001 0.98284,-2.36088 1.87874,-4.75561 2.7453,-7.16109 0.86029,-2.57007 1.77735,-5.12039 2.654,-7.6849 0.83681,-2.23708 1.39207,-4.55375 1.88691,-6.88489 0.55218,-2.22606 0.93059,-4.48483 1.27349,-6.75039 0.54216,-3.79868 1.31377,-7.55779 1.98855,-11.33372 0.69401,-4.14616 1.43015,-8.28295 1.99908,-12.44869 0.51878,-3.96517 1.17865,-7.90517 1.86935,-11.84304 0.81015,-5.15098 1.30956,-10.34711 1.87504,-15.5298 1.02463,-10.21327 1.56835,-20.46596 1.96085,-30.72034 0.248,-7.20294 0.4139,-14.40842 0.55563,-21.61414 0.24625,-4.50573 0.0595,-8.98727 -0.54154,-13.45448 -1.39229,-5.92516 -3.81941,-11.5506 -6.10212,-17.17427 -3.48759,-8.64269 -7.00379,-17.27337 -10.47235,-25.9237 -2.27097,-5.74012 -4.5518,-11.47481 -7.13259,-17.08397 -1.77793,-3.84898 -4.37614,-7.1637 -7.17391,-10.30932 -3.48087,-3.63682 -6.76372,-7.44538 -10.04708,-11.2593 -4.00171,-4.42413 -8.49351,-8.40502 -13.07029,-12.22512 -3.05098,-2.64459 -6.38574,-4.90876 -9.70189,-7.19573 -2.03229,-1.4397 -4.23996,-2.56992 -6.4152,-3.76433 -0.3072,-0.15885 -0.6144,-0.3177 -0.92161,-0.47656 0,0 -1.08644,8.26324 -1.08644,8.26324 v 0 c 0.30128,0.15478 0.60256,0.30956 0.90384,0.46433 2.15534,1.12406 4.27969,2.30057 6.30413,3.65196 3.30987,2.17514 6.57313,4.41981 9.61675,6.96317 4.56502,3.74333 9.00705,7.68943 12.87255,12.164 3.28801,3.85606 6.60269,7.68109 10.03228,11.41159 2.69052,3.11281 5.14429,6.41029 6.84419,10.18548 2.56186,5.49433 4.88687,11.08973 7.16427,16.70719 3.55449,8.62052 7.10459,17.24445 10.45712,25.94598 2.2173,5.71033 4.62184,11.44073 5.70265,17.49862 0.49522,4.39205 0.62633,8.79225 0.4359,13.21094 -0.11567,7.13628 -0.25178,14.27269 -0.51713,21.40526 -0.13508,3.39478 -0.17994,4.79922 -0.35963,8.19899 -0.0705,1.33415 -0.42752,2.67971 -0.23192,4.00133 0.18241,1.23251 0.48235,-2.49977 0.27238,-3.72789 -0.397,-2.32209 -0.15609,9.07729 -0.6091,7.04106 -0.56543,5.11117 -1.12542,10.2263 -1.83233,15.3192 -0.67334,3.93435 -1.4218,7.85072 -1.92498,11.81258 -0.52643,4.18891 -1.24178,8.34407 -1.93626,12.50734 -0.64205,3.71666 -1.46473,7.39905 -2.03208,11.12823 -0.40374,2.24409 -0.62427,4.52266 -1.20458,6.73493 -0.54411,2.30278 -0.90091,4.65585 -1.746,6.88081 -0.89976,2.56668 -1.78381,5.13762 -2.63046,7.72195 -0.87117,2.37894 -1.74059,4.75688 -2.69877,7.10213 -1.01074,2.55204 -2.14225,5.06061 -3.3081,7.54434 -1.21966,2.44639 -2.54977,4.8229 -4.25085,6.97073 -1.51605,2.17385 -3.25589,4.18847 -4.71524,6.40699 -1.51239,2.13798 -3.25424,4.09538 -4.80184,6.20811 -1.72973,2.29585 -3.58875,4.49183 -5.44486,6.68568 -1.70375,2.20973 -3.5768,4.29196 -5.60131,6.21316 -2.24047,2.07435 -4.58832,4.03915 -7.03278,5.86859 -3.07112,2.28646 -6.0798,4.65819 -9.24962,6.81053 -3.68989,2.68893 -7.33713,5.4366 -11.07879,8.05321 -3.76401,2.57429 -7.45392,5.25906 -11.32435,7.67481 -3.63429,2.18185 -7.35712,4.18972 -11.25607,5.867 -4.86456,2.17741 -9.74297,4.32142 -14.69014,6.3064 -4.4865,1.85862 -9.00344,3.64378 -13.49228,5.49797 -4.28461,1.68866 -8.60793,3.27465 -12.96129,4.77813 -3.86138,1.19906 -7.74232,2.33936 -11.6867,3.23784 -4.41209,0.93634 -8.80064,2.01711 -13.27564,2.62303 -4.5743,0.52904 -9.16241,0.87033 -13.77017,0.90608 -4.43164,0.0641 -8.86549,0.16868 -13.29033,-0.17451 -6.06165,-0.3367 -12.1276,-0.7222 -18.14485,-1.55723 -5.51282,-0.77441 -11.0365,-1.44544 -16.55087,-2.20577 -5.31439,-0.839 -10.6199,-1.73149 -15.90899,-2.71849 -4.09047,-0.84475 -8.18118,-1.71512 -12.2103,-2.82028 -3.53075,-1.05905 -7.05798,-2.12536 -10.61311,-3.10073 -2.32032,-0.81407 -4.59389,-1.75604 -6.92512,-2.54079 -2.53389,-0.92821 -5.07222,-1.84604 -7.62217,-2.72794 -2.634,-0.82891 -5.30694,-1.56966 -7.85609,-2.63888 -2.44473,-1.14271 -4.89332,-2.29932 -7.20767,-3.69167 -2.48093,-1.5113 -4.89132,-3.1224 -7.10321,-5.0155 -2.46341,-2.0135 -4.92639,-4.03722 -7.20029,-6.26624 -2.15253,-2.13263 -4.14278,-4.46676 -6.55805,-6.30761 -2.25048,-1.46014 -4.5986,-2.72757 -7.24183,-3.3268 -2.72241,-0.59775 -5.4892,-0.77226 -8.26749,-0.45624 -1.84799,0.18295 -3.73816,0.30288 -5.49949,0.93316 0,0 0.24498,8.48622 0.24498,8.48622 z" />
    <path
       style="fill:#252f3b;fill-opacity:1;stroke:#000000;stroke-width:0;stroke-miterlimit:4;stroke-dasharray:none;stroke-opacity:1"
       id="path4946"
       d="m 425.08627,262.5189 c 1.23725,-0.36602 2.37754,-0.97111 3.53836,-1.52115 2.57046,-1.20674 5.23409,-2.20754 7.86061,-3.28678 2.94221,-1.18065 5.86458,-2.39736 8.74013,-3.73294 3.41639,-1.54691 6.82314,-3.10585 10.28757,-4.5434 3.7511,-1.45365 7.44797,-3.04139 11.17185,-4.5627 4.14813,-1.66058 8.33516,-3.22054 12.48214,-4.88528 4.98642,-1.92616 9.83126,-4.18619 14.71161,-6.3608 4.45345,-2.02341 8.98053,-3.87851 13.50335,-5.73969 4.44943,-1.73823 8.89846,-3.45765 13.26804,-5.39006 4.30681,-1.99936 8.45977,-4.31222 12.67118,-6.50354 4.71267,-2.41365 9.51532,-4.64727 14.36104,-6.77952 5.94477,-2.62685 11.94318,-5.12879 17.95238,-7.60371 5.93842,-2.35408 11.89029,-4.67237 17.81598,-7.05892 6.48742,-2.55115 13.02281,-4.98474 19.56365,-7.39656 5.77936,-2.05518 11.50838,-4.24728 17.26877,-6.35321 4.6946,-1.58608 9.28739,-3.43743 13.88666,-5.27463 3.70614,-1.44453 7.48779,-2.68431 11.18596,-4.14826 2.71958,-1.09916 5.45821,-2.14888 8.19337,-3.20797 2.14654,-0.77643 4.27101,-1.60915 6.39535,-2.44419 1.90507,-0.77409 3.79998,-1.57255 5.70666,-2.34244 1.70701,-0.61649 3.46867,-1.07874 5.22257,-1.54341 0.29574,-0.0698 0.59147,-0.13959 0.8872,-0.20938 0,0 0.21117,-8.35084 0.21117,-8.35084 v 0 c -0.30737,0.0696 -0.61474,0.13911 -0.92211,0.20867 -1.80609,0.46307 -3.61047,0.95349 -5.37853,1.54378 -1.91494,0.75421 -3.78845,1.60849 -5.6993,2.37399 -2.13153,0.83254 -4.24896,1.69563 -6.3983,2.48105 -2.73629,1.09954 -5.48912,2.1578 -8.20542,3.30755 -3.68254,1.53001 -7.47414,2.7689 -11.18305,4.23224 -4.59041,1.86294 -9.15372,3.79337 -13.84999,5.38289 -5.76735,2.12844 -11.47563,4.41698 -17.27066,6.4733 -6.54893,2.41037 -13.05956,4.92525 -19.59476,7.37233 -5.94603,2.34636 -11.88638,4.70719 -17.8326,7.05285 -5.99008,2.50516 -11.98031,5.00962 -17.97706,7.49784 -4.86638,2.13486 -9.70242,4.33932 -14.43678,6.75625 -4.19831,2.1527 -8.35618,4.38545 -12.60195,6.44242 -4.35149,1.9533 -8.76817,3.73619 -13.2338,5.41287 -4.53755,1.87296 -9.08672,3.72216 -13.5385,5.79427 -4.85872,2.17613 -9.68555,4.43408 -14.66072,6.33602 -4.15147,1.6289 -8.35738,3.11683 -12.49049,4.79247 -3.73434,1.50008 -7.42755,3.10198 -11.18333,4.54798 -3.46604,1.44632 -6.90747,2.94165 -10.33639,4.47346 -2.86163,1.32299 -5.7566,2.55856 -8.68731,3.72088 -2.61857,1.08341 -5.26871,2.08184 -7.89267,3.14538 -1.13631,0.47024 -2.2042,1.15033 -3.41777,1.39617 0,0 -0.0941,8.49472 -0.0941,8.49472 z" />
    <path
       style="fill:#252f3b;fill-opacity:1;stroke:#000000;stroke-width:0;stroke-miterlimit:4;stroke-dasharray:none;stroke-opacity:1"
       id="path4948"
       d="m 445.84774,273.68302 c 3.12977,-1.54928 6.42232,-2.7754 9.69269,-4.00002 4.34128,-1.74564 8.77411,-3.20002 13.26567,-4.49908 4.32035,-1.13609 8.67448,-2.16118 13.05454,-3.04166 4.70332,-1.06673 9.44701,-1.90798 14.19926,-2.71882 4.56672,-0.82882 9.17747,-1.33846 13.79933,-1.72778 5.24094,-0.23974 10.46037,-0.69749 15.67774,-1.23621 4.39136,-0.48595 8.80007,-0.76578 13.21069,-1.00001 4.5337,-0.18705 9.06621,-0.31178 13.58788,-0.70781 4.58832,-0.47168 9.18766,-0.81318 13.79163,-1.08535 5.25548,-0.16809 10.48006,-0.78461 15.68422,-1.50297 5.72703,-0.76896 11.47586,-1.34861 17.19883,-2.14916 4.26434,-0.56294 8.51937,-1.17242 12.76631,-1.85313 3.69313,-0.56401 7.37155,-1.22315 11.05061,-1.87235 4.58782,-0.75864 9.15782,-1.62029 13.7478,-2.36567 4.43844,-0.57833 8.82255,-1.46897 13.17739,-2.49053 3.67619,-0.76564 7.31155,-1.66522 10.94129,-2.62271 2.9786,-0.67139 5.93845,-1.39712 8.84888,-2.32378 2.60209,-0.93469 5.19656,-1.89418 7.84136,-2.70226 3.12559,-0.93408 6.17237,-2.10413 9.2426,-3.20073 2.6943,-1.07227 5.42176,-2.05352 8.15058,-3.03316 1.14155,-0.35564 2.25739,-0.77867 3.36676,-1.22236 0,0 0.007,-8.30657 0.007,-8.30657 v 0 c -1.08735,0.46011 -2.18209,0.89869 -3.31367,1.24143 -2.7334,0.99834 -5.46433,2.0035 -8.14602,3.13583 -3.04268,1.08729 -6.08127,2.18913 -9.17652,3.12068 -2.6652,0.77897 -5.26815,1.7506 -7.87359,2.70783 -2.87976,0.96888 -5.81982,1.70149 -8.77886,2.38474 -3.62434,0.96264 -7.23766,1.94305 -10.91237,2.70475 -4.32531,1.04439 -8.67598,1.96283 -13.09396,2.52488 -4.58539,0.77485 -9.15919,1.61509 -13.75331,2.33845 -3.67849,0.60986 -7.36349,1.18045 -11.04066,1.79884 -4.24257,0.71907 -8.47987,1.45378 -12.74518,2.03285 -5.71854,0.81939 -11.45435,1.49206 -17.18672,2.20528 -5.17928,0.62541 -10.36965,1.24531 -15.58948,1.38791 -4.6198,0.2295 -9.22746,0.61583 -13.83066,1.06816 -4.50724,0.39311 -9.02321,0.54138 -13.54464,0.67204 -4.43456,0.23586 -8.8662,0.55992 -13.27975,1.05715 -5.20164,0.58744 -10.40348,1.11828 -15.64129,1.25072 -4.66493,0.32732 -9.31184,0.84807 -13.91149,1.70939 -4.75926,0.8252 -9.5165,1.65048 -14.23374,2.6986 -4.40896,0.89489 -8.80799,1.86323 -13.15577,3.01999 -4.51774,1.32165 -8.98023,2.78418 -13.35141,4.53987 -3.32184,1.20687 -6.60294,2.5687 -9.98872,3.57652 0,0 0.24497,8.48621 0.24497,8.48621 z" />
    <path
       style="fill:#252f3b;fill-opacity:1;stroke:#000000;stroke-width:0;stroke-miterlimit:4;stroke-dasharray:none;stroke-opacity:1"
       id="path4950"
       d="m 503.72482,308.37597 c 2.27518,-0.46354 4.56353,-0.88696 6.85645,-1.26226 3.8425,-0.60274 7.72633,-0.86501 11.60557,-1.09382 4.58969,-0.25996 9.18737,-0.33237 13.78326,-0.38578 3.88908,-0.0868 7.78299,-0.0273 11.65949,0.305 3.27538,0.35378 6.56572,0.57213 9.81949,1.09662 3.45672,0.65375 6.9256,1.23263 10.38927,1.84592 3.81622,0.78879 7.66533,1.39289 11.49515,2.10709 3.81938,0.75406 7.6683,1.33597 11.50285,2.00347 3.87189,0.60614 7.77207,1.00856 11.64778,1.5857 4.24356,0.73067 8.53689,1.03063 12.8286,1.30157 5.46094,0.30391 10.93157,0.36411 16.39897,0.46348 5.82329,0.0981 11.64837,0.0823 17.47031,0.24646 5.44431,0.30562 10.87884,0.78965 16.29633,1.40609 4.96991,0.64775 9.9557,1.13744 14.9511,1.53409 3.74459,0.30902 7.49567,0.51075 11.25034,0.63987 2.6844,0.11188 5.37019,0.14836 8.05629,0.18547 0,0 0.5048,-8.20103 0.5048,-8.20103 v 0 c -2.67802,-0.0392 -5.35583,-0.0986 -8.03334,-0.16366 -3.73821,-0.12537 -7.47564,-0.2843 -11.20831,-0.52649 -4.98242,-0.34857 -9.95352,-0.83042 -14.91103,-1.4403 -5.45228,-0.62135 -10.91626,-1.12926 -16.39818,-1.40487 -5.82637,-0.17023 -11.65739,-0.0761 -17.48479,-0.22382 -5.4479,-0.095 -10.89642,-0.23561 -16.33566,-0.57027 -4.25959,-0.28146 -8.51036,-0.67717 -12.72636,-1.36389 -3.87047,-0.55025 -7.75405,-1.00994 -11.61537,-1.62508 -3.83,-0.63409 -7.67364,-1.18899 -11.48262,-1.9443 -3.83098,-0.74972 -7.68993,-1.34725 -11.50882,-2.16126 -3.47229,-0.60509 -6.94143,-1.21867 -10.40269,-1.88365 -3.28736,-0.53387 -6.60989,-0.74078 -9.92343,-1.05689 -3.91963,-0.28212 -7.85185,-0.42285 -11.78061,-0.26714 -4.60945,0.11531 -9.21915,0.22437 -13.82741,0.38211 -3.91809,0.19774 -7.83705,0.46919 -11.72454,1.01147 -2.31811,0.34345 -4.62682,0.76268 -6.96123,0.97893 0,0 -0.19166,8.48117 -0.19166,8.48117 z" />
    <path
       style="fill:#252f3b;fill-opacity:1;stroke:#000000;stroke-width:0;stroke-miterlimit:4;stroke-dasharray:none;stroke-opacity:1"
       id="path4952"
       d="m 545.6889,368.33773 c 2.30308,-0.11541 4.61084,-0.11221 6.91633,-0.1265 3.35834,-0.13415 6.66483,0.0174 9.97559,0.57949 4.04226,0.76095 7.95149,2.06104 11.87358,3.27225 3.5045,1.05733 6.88132,2.47089 10.32149,3.70885 3.06817,1.06472 6.16781,2.03739 9.2152,3.1614 3.30122,1.32564 6.66959,2.46562 10.01076,3.68373 3.24797,1.1977 6.61769,2.02478 9.9554,2.92991 3.02203,0.84467 6.14275,1.24319 9.18813,1.97644 3.12295,0.77853 6.23931,1.60149 9.33757,2.47531 2.986,0.80228 6.00139,1.48915 9.03739,2.07247 2.59795,0.60345 5.21942,1.09227 7.85746,1.48133 2.36467,0.30508 4.74337,0.47573 7.1228,0.61209 1.42656,0.12264 2.857,0.009 4.28121,-0.0846 0,0 0.40927,-8.32463 0.40927,-8.32463 v 0 c -1.37323,0.0972 -2.75254,0.22359 -4.12921,0.11023 -2.34321,-0.12169 -4.68747,-0.26983 -7.01429,-0.58262 -2.6223,-0.36916 -5.22448,-0.85017 -7.80862,-1.43057 -3.00937,-0.55307 -5.99059,-1.23144 -8.93505,-2.06706 -3.12114,-0.83801 -6.2567,-1.62687 -9.38529,-2.43608 -3.03922,-0.71214 -6.13128,-1.19181 -9.15037,-1.99908 -3.30515,-0.8753 -6.65164,-1.63094 -9.8524,-2.8534 -3.34328,-1.23428 -6.7235,-2.36964 -10.00799,-3.75881 -3.05631,-1.08415 -6.15349,-2.04782 -9.22314,-3.09316 -3.45301,-1.25355 -6.84365,-2.67679 -10.38336,-3.68326 -3.97208,-1.22052 -7.9419,-2.47001 -12.0209,-3.29435 -3.38079,-0.63547 -6.74769,-0.80655 -10.18705,-0.67278 -2.30048,-0.0143 -4.60325,-0.0109 -6.9013,-0.1265 0,0 -0.50321,8.46992 -0.50321,8.46992 z" />
    <path
       style="fill:#252f3b;fill-opacity:1;stroke:#000000;stroke-width:0;stroke-miterlimit:4;stroke-dasharray:none;stroke-opacity:1"
       id="path4954"
       d="m 510.5628,463.99473 c 1.54162,0.96693 3.02454,2.04409 4.44498,3.1812 1.95408,1.37104 3.83762,2.82219 5.70181,4.31111 1.59576,1.23667 3.24896,2.38627 4.9177,3.52162 1.66464,1.21236 3.45912,2.2419 5.31606,3.12799 1.68283,0.975 3.48003,1.72315 5.3086,2.37426 1.92669,0.79524 3.9329,1.36275 5.93375,1.93476 2.06998,0.50449 4.11734,1.09514 6.19567,1.56589 1.76616,0.417 3.55799,0.79793 5.29314,1.33466 1.55734,0.52444 3.07472,1.19265 4.57591,1.86463 1.7696,0.95293 3.55446,1.89855 5.25222,2.97636 2.04347,1.27714 4.11728,2.50463 6.07646,3.90991 1.85178,1.34169 3.64655,2.75795 5.47016,4.13687 1.95117,1.49127 3.89826,2.98488 5.83676,4.4927 2.13675,1.48108 4.18922,3.07351 6.2658,4.63581 1.80575,1.39086 3.6094,2.79258 5.34066,4.27517 1.74496,1.40758 3.50688,2.79128 5.28455,4.15725 1.46046,1.34507 3.01795,2.55388 4.75954,3.50849 0.24964,0.15369 0.49929,0.30737 0.74893,0.46105 0,0 1.17054,-8.27824 1.17054,-8.27824 v 0 c -0.26024,-0.15255 -0.52047,-0.30509 -0.78071,-0.45764 -1.66134,-0.97829 -3.11573,-2.22505 -4.59143,-3.45919 -1.76544,-1.35453 -3.53013,-2.71121 -5.23603,-4.14057 -1.78191,-1.44912 -3.56051,-2.90454 -5.4068,-4.27161 -2.07475,-1.55039 -4.17428,-3.06671 -6.24546,-4.62156 -1.93946,-1.51005 -3.89889,-2.99293 -5.84644,-4.49237 -1.8218,-1.41399 -3.63571,-2.83595 -5.52509,-4.16049 -2.0196,-1.35986 -4.09973,-2.62619 -6.14206,-3.95107 -1.77441,-1.05367 -3.56963,-2.08235 -5.41244,-3.0111 -1.55435,-0.69205 -3.10455,-1.42542 -4.74156,-1.90138 -1.77459,-0.49479 -3.57395,-0.91895 -5.37443,-1.30649 -2.05356,-0.46609 -4.08055,-1.03879 -6.12369,-1.54688 -1.97213,-0.57812 -3.94462,-1.16377 -5.84958,-1.94145 -1.78233,-0.65987 -3.50639,-1.4549 -5.17838,-2.35952 -1.79253,-0.89068 -3.51865,-1.91518 -5.12739,-3.10929 -1.62589,-1.13949 -3.27979,-2.23678 -4.83959,-3.4684 -1.87026,-1.48618 -3.80018,-2.88724 -5.70629,-4.32629 -1.42115,-1.10246 -2.91771,-2.11902 -4.27423,-3.29806 0,0 -1.49164,8.33187 -1.49164,8.33187 z" />
    <path
       style="fill:#252f3b;fill-opacity:1;stroke:#000000;stroke-width:0;stroke-miterlimit:4;stroke-dasharray:none;stroke-opacity:1"
       id="path4956"
       d="m 426.25494,446.25688 c 1.6928,1.74088 3.46319,3.40819 5.20742,5.09834 2.45734,2.45612 4.87772,4.94998 7.41966,7.32033 2.29572,2.23588 4.53936,4.51965 6.90828,6.67855 2.21165,2.11957 4.57863,4.06694 6.82048,6.15181 1.97079,2.00966 3.88807,4.05554 5.67585,6.22945 1.83813,1.92855 3.45196,4.04263 5.1142,6.11674 1.66782,2.03112 3.34059,4.05637 5.00165,6.09239 1.51459,1.86314 2.96554,3.77711 4.393,5.70804 1.62867,1.97167 3.2383,3.95682 4.91976,5.88454 1.77184,1.98406 3.6453,3.87286 5.47336,5.80551 1.79362,1.83323 3.64511,3.61277 5.51968,5.36422 1.98665,1.65411 4.01167,3.26396 6.16458,4.69839 2.28733,1.32072 4.50643,2.75574 6.79698,4.06986 2.43552,1.52343 4.91637,2.99855 7.22816,4.70824 2.4751,1.73147 4.90865,3.51492 7.27256,5.39569 2.9409,2.44011 5.74694,5.04352 8.55041,7.64018 2.96191,2.54394 5.81183,5.21468 8.74393,7.79204 2.0821,1.87126 4.02007,3.89235 5.91679,5.94888 2.03059,2.07784 3.78174,4.39697 5.58179,6.67029 1.75266,2.30325 3.43462,4.65757 5.14171,6.99473 1.95764,2.74429 3.97359,5.44374 5.97735,8.15342 1.59676,2.22192 3.29932,4.34418 5.07462,6.42211 1.33604,1.74045 2.92855,3.26944 4.51654,4.77717 0.62167,0.67928 1.29948,1.29538 1.92951,1.96656 0,0 1.49051,-8.22878 1.49051,-8.22878 v 0 c -0.65639,-0.65142 -1.31965,-1.29573 -1.97377,-1.94946 -1.54306,-1.50832 -3.0947,-3.01289 -4.41041,-4.73055 -1.776,-2.02193 -3.39059,-4.16754 -5.00364,-6.32102 -2.03154,-2.68708 -4.02336,-5.40401 -5.95996,-8.16052 -1.71003,-2.35569 -3.38858,-4.7352 -5.18745,-7.0248 -1.822,-2.29468 -3.65359,-4.58464 -5.67272,-6.71184 -1.92517,-2.05682 -3.91925,-4.05136 -6.05622,-5.89 -2.92371,-2.55117 -5.80729,-5.14943 -8.7261,-7.70573 -2.84806,-2.62136 -5.62974,-5.32298 -8.62438,-7.77711 -2.39224,-1.86947 -4.84393,-3.65859 -7.32146,-5.41332 -2.37595,-1.68325 -4.85309,-3.22049 -7.34283,-4.72872 -2.24165,-1.35582 -4.46536,-2.74128 -6.71743,-4.07989 -2.08572,-1.43276 -4.05016,-3.03623 -5.96769,-4.68543 -1.85346,-1.74108 -3.69327,-3.50153 -5.44857,-5.34169 -1.82138,-1.91854 -3.70247,-3.78223 -5.41783,-5.79824 -1.65126,-1.92222 -3.2597,-3.88077 -4.82596,-5.87295 -1.44296,-1.94305 -2.90894,-3.87223 -4.45889,-5.7314 -1.6876,-1.9949 -3.32481,-4.0308 -4.97758,-6.05458 -1.63923,-2.10696 -3.36659,-4.1365 -5.14554,-6.12733 -1.83692,-2.17474 -3.81159,-4.2243 -5.84457,-6.21633 -2.26444,-2.0617 -4.59343,-4.05225 -6.82019,-6.15613 -2.34181,-2.17206 -4.59345,-4.43523 -6.90452,-6.63971 -2.53466,-2.37628 -4.93061,-4.88928 -7.38432,-7.34748 -1.72133,-1.71227 -3.52876,-3.3685 -5.01882,-5.29135 0,0 -1.62793,8.29688 -1.62793,8.29688 z" />
    <path
       style="fill:#252f3b;fill-opacity:1;stroke:#000000;stroke-width:0;stroke-miterlimit:4;stroke-dasharray:none;stroke-opacity:1"
       id="path4958"
       d="m 377.32233,417.16121 c 0.85037,1.96347 1.70969,3.92776 2.66822,5.84098 0.95043,2.23651 1.94181,4.45412 2.96723,6.65809 0.89853,2.28626 2.07066,4.43921 3.16172,6.63393 0.91986,2.16597 1.82124,4.3395 2.6554,6.53933 0.86806,2.18501 1.88301,4.30424 2.77837,6.47792 1.29986,2.37993 2.30651,4.89763 3.45126,7.3516 0.96019,2.39114 2.30731,4.59788 3.31904,6.9632 0.91509,2.53385 2.12666,4.93398 3.20755,7.39622 1.10585,2.32101 2.05478,4.71014 3.19937,7.01328 1.12666,2.37215 2.09729,4.80985 3.20264,7.19279 1.42904,3.31464 3.26006,6.43031 4.85818,9.66265 1.72279,3.22513 3.37487,6.49299 5.21813,9.65211 1.58301,2.88378 3.33446,5.66772 4.97695,8.51677 1.64122,2.6864 3.30073,5.36447 5.02104,8.00149 1.76194,2.8118 3.6386,5.54763 5.48975,8.30091 1.68209,2.46279 3.49452,4.8289 5.33296,7.17499 1.86503,2.52617 3.80659,4.99524 5.64049,7.54401 1.97175,2.80248 3.9864,5.57355 5.99144,8.35214 2.55772,3.63038 5.41615,7.02689 7.91815,10.69661 2.15533,3.09102 4.03971,6.35618 6.00478,9.56828 2.14337,3.24771 4.08368,6.60598 5.9069,10.04045 1.67273,3.26243 3.3804,6.50559 4.9128,9.83802 1.5135,3.08719 2.92889,6.22165 4.41783,9.32079 1.16675,2.57374 2.41517,5.10903 3.61682,7.66625 0.96553,2.19983 2.04475,4.34636 2.91805,6.5868 1.07452,1.95882 1.9057,4.0383 2.98178,5.99473 0.77642,1.71908 1.7585,3.32058 2.76709,4.91115 0.81302,1.58894 1.7469,3.11168 2.57585,4.69254 0.97682,1.4669 1.76343,3.04889 2.8105,4.46768 0,0 1.69499,-8.18711 1.69499,-8.18711 v 0 c -0.93647,-1.45184 -1.79024,-2.9573 -2.67688,-4.43985 -0.8778,-1.56959 -1.73454,-3.15188 -2.6481,-4.70062 -0.96035,-1.59031 -1.87509,-3.19965 -2.68763,-4.87177 -0.99132,-1.96447 -1.93682,-3.95375 -2.86715,-5.94732 -0.94332,-2.2129 -1.98959,-4.3789 -2.99681,-6.56301 -1.2241,-2.53404 -2.41597,-5.08326 -3.62932,-7.62248 -1.47085,-3.08348 -2.92099,-6.17705 -4.42272,-9.24565 -1.57695,-3.33286 -3.23915,-6.62289 -4.97367,-9.87661 -1.85695,-3.43212 -3.90436,-6.74332 -5.97121,-10.0523 -1.94308,-3.23002 -3.90221,-6.45464 -6.09273,-9.52533 -2.58171,-3.62825 -5.42004,-7.0645 -7.92621,-10.74816 -2.00401,-2.79653 -3.9662,-5.62255 -5.98771,-8.40643 -1.8725,-2.54261 -3.77354,-5.06378 -5.67456,-7.58509 -1.81235,-2.33004 -3.59284,-4.68712 -5.2545,-7.12787 -1.85572,-2.74712 -3.71414,-5.49138 -5.46591,-8.3067 -1.69739,-2.63627 -3.36122,-5.29608 -4.96205,-7.99206 -1.65653,-2.82398 -3.39072,-5.6019 -4.97961,-8.46569 -1.78313,-3.17617 -3.48052,-6.39987 -5.15568,-9.63401 -1.6549,-3.21825 -3.41612,-6.38638 -4.7897,-9.7409 -1.07167,-2.39764 -2.054,-4.83574 -3.23181,-7.18474 -1.08782,-2.33468 -2.0422,-4.72832 -3.16002,-7.04944 -1.13171,-2.43329 -2.22166,-4.8782 -3.2102,-7.37416 -1.09629,-2.32805 -2.33316,-4.5891 -3.32992,-6.96444 -1.11519,-2.45702 -2.23578,-4.90973 -3.40462,-7.34153 -0.90622,-2.17401 -1.89999,-4.31092 -2.74588,-6.51033 -0.88984,-2.19852 -1.74477,-4.41335 -2.77229,-6.55285 -1.1117,-2.17045 -2.16816,-4.3648 -3.11836,-6.61186 -1.00006,-2.21901 -1.98522,-4.4448 -2.99571,-6.65875 -0.9333,-1.98807 -1.79054,-4.00841 -2.63918,-6.03316 0,0 -1.89514,8.26451 -1.89514,8.26451 z" />
    <circle
       id="path5153"
       style="fill:#252f3b;stroke:#000000"
       cx="636.47784"
       cy="404.35062"
       r="0" />
    <circle
       id="path5155"
       style="fill:#252f3b;stroke:#000000"
       cx="636.47784"
       cy="404.35062"
       r="0" />
  </g>
</svg>
