<?xml version="1.0" encoding="UTF-8" standalone="no"?>
<svg
   class="svglite"
   width="476.25pt"
   height="346.50pt"
   viewBox="0 0 476.25 346.50"
   version="1.1"
   id="svg309"
   sodipodi:docname="SI_figure_x_AU_destabilization_versus_AU_content.svg"
   inkscape:version="1.1.2 (b8e25be833, 2022-02-05)"
   xmlns:inkscape="http://www.inkscape.org/namespaces/inkscape"
   xmlns:sodipodi="http://sodipodi.sourceforge.net/DTD/sodipodi-0.dtd"
   xmlns="http://www.w3.org/2000/svg"
   xmlns:svg="http://www.w3.org/2000/svg">
  <sodipodi:namedview
     id="namedview311"
     pagecolor="#ffffff"
     bordercolor="#cccccc"
     borderopacity="1"
     inkscape:pageshadow="0"
     inkscape:pageopacity="1"
     inkscape:pagecheckerboard="0"
     inkscape:document-units="pt"
     showgrid="false"
     inkscape:zoom="1.6682822"
     inkscape:cx="142.96142"
     inkscape:cy="300.3089"
     inkscape:window-width="1366"
     inkscape:window-height="705"
     inkscape:window-x="-8"
     inkscape:window-y="-8"
     inkscape:window-maximized="1"
     inkscape:current-layer="svg309" />
  <defs
     id="defs4">
    <style
       type="text/css"
       id="style2"><![CDATA[
    .svglite line, .svglite polyline, .svglite polygon, .svglite path, .svglite rect, .svglite circle {
      fill: none;
      stroke: #000000;
      stroke-linecap: round;
      stroke-linejoin: round;
      stroke-miterlimit: 10.00;
    }
    .svglite text {
      white-space: pre;
    }
  ]]></style>
  </defs>
  <rect
     width="100%"
     height="100%"
     style="stroke: none; fill: #FFFFFF;"
     id="rect6" />
  <defs
     id="defs11">
    <clipPath
       id="cpMC4wMHw0NzYuMjV8MC4wMHwzNDYuNTA=">
      <rect
         x="0.00"
         y="0.00"
         width="476.25"
         height="346.50"
         id="rect8" />
    </clipPath>
  </defs>
  <g
     clip-path="url(#cpMC4wMHw0NzYuMjV8MC4wMHwzNDYuNTA=)"
     id="g15">
    <rect
       x="0.00"
       y="0.000000000000057"
       width="476.25"
       height="346.50"
       style="stroke-width: 1.07; stroke: #FFFFFF; fill: #FFFFFF;"
       id="rect13" />
  </g>
  <defs
     id="defs20">
    <clipPath
       id="cpNTUuNTR8MTkwLjMwfDI3LjIxfDMwMy43MA==">
      <rect
         x="55.54"
         y="27.21"
         width="134.76"
         height="276.49"
         id="rect17" />
    </clipPath>
  </defs>
  <g
     clip-path="url(#cpNTUuNTR8MTkwLjMwfDI3LjIxfDMwMy43MA==)"
     id="g66">
    <rect
       x="55.54"
       y="27.21"
       width="134.76"
       height="276.49"
       style="stroke-width: 1.07; stroke: none; fill: #FFFFFF;"
       id="rect22" />
    <circle
       cx="61.67"
       cy="135.53"
       r="1.95"
       style="stroke-width: 0.71; fill: #000000;"
       id="circle24" />
    <circle
       cx="93.52"
       cy="73.29"
       r="1.95"
       style="stroke-width: 0.71; fill: #000000;"
       id="circle26" />
    <circle
       cx="154.77"
       cy="154.68"
       r="1.95"
       style="stroke-width: 0.71; fill: #000000;"
       id="circle28" />
    <circle
       cx="154.77"
       cy="130.75"
       r="1.95"
       style="stroke-width: 0.71; fill: #000000;"
       id="circle30" />
    <circle
       cx="184.17"
       cy="134.34"
       r="1.95"
       style="stroke-width: 0.71; fill: #000000;"
       id="circle32" />
    <polyline
       points="61.67,108.62 63.22,109.01 64.77,109.40 66.32,109.79 67.87,110.18 69.42,110.57 70.97,110.96 72.52,111.35 74.08,111.74 75.63,112.13 77.18,112.51 78.73,112.90 80.28,113.29 81.83,113.68 83.38,114.07 84.93,114.46 86.48,114.85 88.03,115.24 89.58,115.63 91.13,116.02 92.68,116.41 94.23,116.80 95.78,117.19 97.34,117.57 98.89,117.96 100.44,118.35 101.99,118.74 103.54,119.13 105.09,119.52 106.64,119.91 108.19,120.30 109.74,120.69 111.29,121.08 112.84,121.47 114.39,121.86 115.94,122.25 117.49,122.64 119.05,123.02 120.60,123.41 122.15,123.80 123.70,124.19 125.25,124.58 126.80,124.97 128.35,125.36 129.90,125.75 131.45,126.14 133.00,126.53 134.55,126.92 136.10,127.31 137.65,127.70 139.20,128.08 140.76,128.47 142.31,128.86 143.86,129.25 145.41,129.64 146.96,130.03 148.51,130.42 150.06,130.81 151.61,131.20 153.16,131.59 154.71,131.98 156.26,132.37 157.81,132.76 159.36,133.14 160.91,133.53 162.47,133.92 164.02,134.31 165.57,134.70 167.12,135.09 168.67,135.48 170.22,135.87 171.77,136.26 173.32,136.65 174.87,137.04 176.42,137.43 177.97,137.82 179.52,138.20 181.07,138.59 182.62,138.98 184.17,139.37 "
       style="stroke-width: 2.13; stroke: #3366FF; stroke-linecap: butt;"
       id="polyline34" />
    <text
       x="61.67"
       y="51.81"
       style="font-size: 11.04px; font-style: italic; font-family: &quot;Arial&quot;;"
       textLength="5.52px"
       lengthAdjust="spacingAndGlyphs"
       id="text36">y</text>
    <text
       x="67.18"
       y="51.81"
       style="font-size: 11.04px; font-family: &quot;Arial&quot;;"
       textLength="3.02px"
       lengthAdjust="spacingAndGlyphs"
       id="text38" />
    <text
       x="70.21"
       y="51.81"
       style="font-size: 11.04px; font-family: &quot;Arial&quot;;"
       textLength="6.44px"
       lengthAdjust="spacingAndGlyphs"
       id="text40">=</text>
    <text
       x="76.65"
       y="51.81"
       style="font-size: 11.04px; font-family: &quot;Arial&quot;;"
       textLength="3.02px"
       lengthAdjust="spacingAndGlyphs"
       id="text42" />
    <text
       x="79.68"
       y="51.81"
       style="font-size: 11.04px; font-family: &quot;Arial&quot;;"
       textLength="21.47px"
       lengthAdjust="spacingAndGlyphs"
       id="text44">0.95</text>
    <text
       x="103.19"
       y="51.81"
       style="font-size: 11.04px; font-family: &quot;Arial&quot;;"
       textLength="7.54px"
       lengthAdjust="spacingAndGlyphs"
       id="text46">−</text>
    <text
       x="112.77"
       y="51.81"
       style="font-size: 11.04px; font-family: &quot;Arial&quot;;"
       textLength="33.74px"
       lengthAdjust="spacingAndGlyphs"
       id="text48">0.0051</text>
    <text
       x="146.51"
       y="51.81"
       style="font-size: 11.04px; font-family: &quot;Arial&quot;;"
       textLength="3.02px"
       lengthAdjust="spacingAndGlyphs"
       id="text50" />
    <text
       x="149.53"
       y="51.81"
       style="font-size: 11.04px; font-style: italic; font-family: &quot;Arial&quot;;"
       textLength="5.52px"
       lengthAdjust="spacingAndGlyphs"
       id="text52">x</text>
    <text
       x="61.67"
       y="128.99"
       style="font-size: 11.04px; font-style: italic; font-family: &quot;Arial&quot;;"
       textLength="7.96px"
       lengthAdjust="spacingAndGlyphs"
       id="text54">R</text>
    <text
       x="70.82"
       y="123.56"
       style="font-size: 7.73px; font-family: &quot;Arial&quot;;"
       textLength="4.29px"
       lengthAdjust="spacingAndGlyphs"
       id="text56">2</text>
    <text
       x="75.11"
       y="128.99"
       style="font-size: 11.04px; font-family: &quot;Arial&quot;;"
       textLength="3.02px"
       lengthAdjust="spacingAndGlyphs"
       id="text58" />
    <text
       x="78.13"
       y="128.99"
       style="font-size: 11.04px; font-family: &quot;Arial&quot;;"
       textLength="6.44px"
       lengthAdjust="spacingAndGlyphs"
       id="text60">=</text>
    <text
       x="84.58"
       y="128.99"
       style="font-size: 11.04px; font-family: &quot;Arial&quot;;"
       textLength="3.02px"
       lengthAdjust="spacingAndGlyphs"
       id="text62" />
    <text
       x="87.60"
       y="128.99"
       style="font-size: 11.04px; font-family: &quot;Arial&quot;;"
       textLength="21.47px"
       lengthAdjust="spacingAndGlyphs"
       id="text64">0.17</text>
  </g>
  <g
     clip-path="url(#cpMC4wMHw0NzYuMjV8MC4wMHwzNDYuNTA=)"
     id="g68" />
  <defs
     id="defs73">
    <clipPath
       id="cpMTk1Ljc4fDMzMC41NHwyNy4yMXwzMDMuNzA=">
      <rect
         x="195.78"
         y="27.21"
         width="134.76"
         height="276.49"
         id="rect70" />
    </clipPath>
  </defs>
  <g
     clip-path="url(#cpMTk1Ljc4fDMzMC41NHwyNy4yMXwzMDMuNzA=)"
     id="g119">
    <rect
       x="195.78"
       y="27.21"
       width="134.76"
       height="276.49"
       style="stroke-width: 1.07; stroke: none; fill: #FFFFFF;"
       id="rect75" />
    <circle
       cx="201.90"
       cy="169.05"
       r="1.95"
       style="stroke-width: 0.71; fill: #000000;"
       id="circle77" />
    <circle
       cx="233.76"
       cy="158.28"
       r="1.95"
       style="stroke-width: 0.71; fill: #000000;"
       id="circle79" />
    <circle
       cx="295.01"
       cy="141.52"
       r="1.95"
       style="stroke-width: 0.71; fill: #000000;"
       id="circle81" />
    <circle
       cx="295.01"
       cy="145.11"
       r="1.95"
       style="stroke-width: 0.71; fill: #000000;"
       id="circle83" />
    <circle
       cx="324.41"
       cy="135.53"
       r="1.95"
       style="stroke-width: 0.71; fill: #000000;"
       id="circle85" />
    <polyline
       points="201.90,168.12 203.46,167.70 205.01,167.29 206.56,166.87 208.11,166.46 209.66,166.04 211.21,165.63 212.76,165.21 214.31,164.80 215.86,164.38 217.41,163.97 218.96,163.56 220.51,163.14 222.06,162.73 223.61,162.31 225.17,161.90 226.72,161.48 228.27,161.07 229.82,160.65 231.37,160.24 232.92,159.82 234.47,159.41 236.02,158.99 237.57,158.58 239.12,158.16 240.67,157.75 242.22,157.33 243.77,156.92 245.32,156.50 246.88,156.09 248.43,155.67 249.98,155.26 251.53,154.84 253.08,154.43 254.63,154.01 256.18,153.60 257.73,153.18 259.28,152.77 260.83,152.35 262.38,151.94 263.93,151.52 265.48,151.11 267.03,150.70 268.58,150.28 270.14,149.87 271.69,149.45 273.24,149.04 274.79,148.62 276.34,148.21 277.89,147.79 279.44,147.38 280.99,146.96 282.54,146.55 284.09,146.13 285.64,145.72 287.19,145.30 288.74,144.89 290.29,144.47 291.85,144.06 293.40,143.64 294.95,143.23 296.50,142.81 298.05,142.40 299.60,141.98 301.15,141.57 302.70,141.15 304.25,140.74 305.80,140.32 307.35,139.91 308.90,139.49 310.45,139.08 312.00,138.66 313.56,138.25 315.11,137.84 316.66,137.42 318.21,137.01 319.76,136.59 321.31,136.18 322.86,135.76 324.41,135.35 "
       style="stroke-width: 2.13; stroke: #3366FF; stroke-linecap: butt;"
       id="polyline87" />
    <text
       x="201.90"
       y="51.81"
       style="font-size: 11.04px; font-style: italic; font-family: &quot;Arial&quot;;"
       textLength="5.52px"
       lengthAdjust="spacingAndGlyphs"
       id="text89">y</text>
    <text
       x="207.42"
       y="51.81"
       style="font-size: 11.04px; font-family: &quot;Arial&quot;;"
       textLength="3.02px"
       lengthAdjust="spacingAndGlyphs"
       id="text91" />
    <text
       x="210.44"
       y="51.81"
       style="font-size: 11.04px; font-family: &quot;Arial&quot;;"
       textLength="6.44px"
       lengthAdjust="spacingAndGlyphs"
       id="text93">=</text>
    <text
       x="216.89"
       y="51.81"
       style="font-size: 11.04px; font-family: &quot;Arial&quot;;"
       textLength="3.02px"
       lengthAdjust="spacingAndGlyphs"
       id="text95" />
    <text
       x="219.91"
       y="51.81"
       style="font-size: 11.04px; font-family: &quot;Arial&quot;;"
       textLength="21.47px"
       lengthAdjust="spacingAndGlyphs"
       id="text97">0.19</text>
    <text
       x="243.42"
       y="51.81"
       style="font-size: 11.04px; font-family: &quot;Arial&quot;;"
       textLength="7.55px"
       lengthAdjust="spacingAndGlyphs"
       id="text99">+</text>
    <text
       x="253.01"
       y="51.81"
       style="font-size: 11.04px; font-family: &quot;Arial&quot;;"
       textLength="33.74px"
       lengthAdjust="spacingAndGlyphs"
       id="text101">0.0055</text>
    <text
       x="286.75"
       y="51.81"
       style="font-size: 11.04px; font-family: &quot;Arial&quot;;"
       textLength="3.02px"
       lengthAdjust="spacingAndGlyphs"
       id="text103" />
    <text
       x="289.77"
       y="51.81"
       style="font-size: 11.04px; font-style: italic; font-family: &quot;Arial&quot;;"
       textLength="5.52px"
       lengthAdjust="spacingAndGlyphs"
       id="text105">x</text>
    <text
       x="201.90"
       y="128.99"
       style="font-size: 11.04px; font-style: italic; font-family: &quot;Arial&quot;;"
       textLength="7.96px"
       lengthAdjust="spacingAndGlyphs"
       id="text107">R</text>
    <text
       x="211.05"
       y="123.56"
       style="font-size: 7.73px; font-family: &quot;Arial&quot;;"
       textLength="4.29px"
       lengthAdjust="spacingAndGlyphs"
       id="text109">2</text>
    <text
       x="215.34"
       y="128.99"
       style="font-size: 11.04px; font-family: &quot;Arial&quot;;"
       textLength="3.02px"
       lengthAdjust="spacingAndGlyphs"
       id="text111" />
    <text
       x="218.37"
       y="128.99"
       style="font-size: 11.04px; font-family: &quot;Arial&quot;;"
       textLength="6.44px"
       lengthAdjust="spacingAndGlyphs"
       id="text113">=</text>
    <text
       x="224.81"
       y="128.99"
       style="font-size: 11.04px; font-family: &quot;Arial&quot;;"
       textLength="3.02px"
       lengthAdjust="spacingAndGlyphs"
       id="text115" />
    <text
       x="227.84"
       y="128.99"
       style="font-size: 11.04px; font-family: &quot;Arial&quot;;"
       textLength="21.47px"
       lengthAdjust="spacingAndGlyphs"
       id="text117">0.99</text>
  </g>
  <g
     clip-path="url(#cpMC4wMHw0NzYuMjV8MC4wMHwzNDYuNTA=)"
     id="g121" />
  <defs
     id="defs126">
    <clipPath
       id="cpMzM2LjAxfDQ3MC43N3wyNy4yMXwzMDMuNzA=">
      <rect
         x="336.01"
         y="27.21"
         width="134.76"
         height="276.49"
         id="rect123" />
    </clipPath>
  </defs>
  <g
     clip-path="url(#cpMzM2LjAxfDQ3MC43N3wyNy4yMXwzMDMuNzA=)"
     id="g174">
    <rect
       x="336.01"
       y="27.21"
       width="134.76"
       height="276.49"
       style="stroke-width: 1.07; stroke: none; fill: #FFFFFF;"
       id="rect128" />
    <circle
       cx="342.14"
       cy="159.47"
       r="1.95"
       style="stroke-width: 0.71; fill: #000000;"
       id="circle130" />
    <circle
       cx="373.99"
       cy="255.22"
       r="1.95"
       style="stroke-width: 0.71; fill: #000000;"
       id="circle132" />
    <circle
       cx="435.24"
       cy="207.35"
       r="1.95"
       style="stroke-width: 0.71; fill: #000000;"
       id="circle134" />
    <circle
       cx="435.24"
       cy="192.99"
       r="1.95"
       style="stroke-width: 0.71; fill: #000000;"
       id="circle136" />
    <circle
       cx="464.65"
       cy="109.20"
       r="1.95"
       style="stroke-width: 0.71; fill: #000000;"
       id="circle138" />
    <polyline
       points="342.14,212.81 343.69,212.18 345.24,211.54 346.79,210.90 348.34,210.27 349.89,209.63 351.44,208.99 352.99,208.36 354.55,207.72 356.10,207.08 357.65,206.45 359.20,205.81 360.75,205.17 362.30,204.54 363.85,203.90 365.40,203.26 366.95,202.63 368.50,201.99 370.05,201.35 371.60,200.72 373.15,200.08 374.70,199.44 376.26,198.81 377.81,198.17 379.36,197.53 380.91,196.90 382.46,196.26 384.01,195.62 385.56,194.99 387.11,194.35 388.66,193.71 390.21,193.08 391.76,192.44 393.31,191.80 394.86,191.17 396.41,190.53 397.97,189.89 399.52,189.26 401.07,188.62 402.62,187.98 404.17,187.35 405.72,186.71 407.27,186.07 408.82,185.43 410.37,184.80 411.92,184.16 413.47,183.52 415.02,182.89 416.57,182.25 418.12,181.61 419.67,180.98 421.23,180.34 422.78,179.70 424.33,179.07 425.88,178.43 427.43,177.79 428.98,177.16 430.53,176.52 432.08,175.88 433.63,175.25 435.18,174.61 436.73,173.97 438.28,173.34 439.83,172.70 441.38,172.06 442.94,171.43 444.49,170.79 446.04,170.15 447.59,169.52 449.14,168.88 450.69,168.24 452.24,167.61 453.79,166.97 455.34,166.33 456.89,165.70 458.44,165.06 459.99,164.42 461.54,163.79 463.09,163.15 464.65,162.51 "
       style="stroke-width: 2.13; stroke: #3366FF; stroke-linecap: butt;"
       id="polyline140" />
    <text
       x="342.14"
       y="51.81"
       style="font-size: 11.04px; font-style: italic; font-family: &quot;Arial&quot;;"
       textLength="5.52px"
       lengthAdjust="spacingAndGlyphs"
       id="text142">y</text>
    <text
       x="347.66"
       y="51.81"
       style="font-size: 11.04px; font-family: &quot;Arial&quot;;"
       textLength="3.02px"
       lengthAdjust="spacingAndGlyphs"
       id="text144" />
    <text
       x="350.68"
       y="51.81"
       style="font-size: 11.04px; font-family: &quot;Arial&quot;;"
       textLength="6.44px"
       lengthAdjust="spacingAndGlyphs"
       id="text146">=</text>
    <text
       x="357.12"
       y="51.81"
       style="font-size: 11.04px; font-family: &quot;Arial&quot;;"
       textLength="3.02px"
       lengthAdjust="spacingAndGlyphs"
       id="text148" />
    <text
       x="360.15"
       y="51.81"
       style="font-size: 11.04px; font-family: &quot;Arial&quot;;"
       textLength="7.54px"
       lengthAdjust="spacingAndGlyphs"
       id="text150">−</text>
    <text
       x="369.22"
       y="51.81"
       style="font-size: 11.04px; font-family: &quot;Arial&quot;;"
       textLength="21.47px"
       lengthAdjust="spacingAndGlyphs"
       id="text152">0.26</text>
    <text
       x="392.73"
       y="51.81"
       style="font-size: 11.04px; font-family: &quot;Arial&quot;;"
       textLength="7.55px"
       lengthAdjust="spacingAndGlyphs"
       id="text154">+</text>
    <text
       x="402.32"
       y="51.81"
       style="font-size: 11.04px; font-family: &quot;Arial&quot;;"
       textLength="33.74px"
       lengthAdjust="spacingAndGlyphs"
       id="text156">0.0084</text>
    <text
       x="436.06"
       y="51.81"
       style="font-size: 11.04px; font-family: &quot;Arial&quot;;"
       textLength="3.02px"
       lengthAdjust="spacingAndGlyphs"
       id="text158" />
    <text
       x="439.08"
       y="51.81"
       style="font-size: 11.04px; font-style: italic; font-family: &quot;Arial&quot;;"
       textLength="5.52px"
       lengthAdjust="spacingAndGlyphs"
       id="text160">x</text>
    <text
       x="342.14"
       y="128.99"
       style="font-size: 11.04px; font-style: italic; font-family: &quot;Arial&quot;;"
       textLength="7.96px"
       lengthAdjust="spacingAndGlyphs"
       id="text162">R</text>
    <text
       x="351.29"
       y="123.56"
       style="font-size: 7.73px; font-family: &quot;Arial&quot;;"
       textLength="4.29px"
       lengthAdjust="spacingAndGlyphs"
       id="text164">2</text>
    <text
       x="355.58"
       y="128.99"
       style="font-size: 11.04px; font-family: &quot;Arial&quot;;"
       textLength="3.02px"
       lengthAdjust="spacingAndGlyphs"
       id="text166" />
    <text
       x="358.60"
       y="128.99"
       style="font-size: 11.04px; font-family: &quot;Arial&quot;;"
       textLength="6.44px"
       lengthAdjust="spacingAndGlyphs"
       id="text168">=</text>
    <text
       x="365.05"
       y="128.99"
       style="font-size: 11.04px; font-family: &quot;Arial&quot;;"
       textLength="3.02px"
       lengthAdjust="spacingAndGlyphs"
       id="text170" />
    <text
       x="368.07"
       y="128.99"
       style="font-size: 11.04px; font-family: &quot;Arial&quot;;"
       textLength="21.47px"
       lengthAdjust="spacingAndGlyphs"
       id="text172">0.14</text>
  </g>
  <g
     clip-path="url(#cpMC4wMHw0NzYuMjV8MC4wMHwzNDYuNTA=)"
     id="g176" />
  <defs
     id="defs181">
    <clipPath
       id="cpNTUuNTR8MTkwLjMwfDUuNDh8MjcuMjE=">
      <rect
         x="55.54"
         y="5.48"
         width="134.76"
         height="21.73"
         id="rect178" />
    </clipPath>
  </defs>
  <g
     clip-path="url(#cpNTUuNTR8MTkwLjMwfDUuNDh8MjcuMjE=)"
     id="g187">
    <rect
       x="55.54"
       y="5.48"
       width="134.76"
       height="21.73"
       style="stroke-width: 2.13; fill: #FFFFFF;"
       id="rect183" />
    <text
       x="99.97"
       y="19.89"
       style="font-size: 14.00px; font-family: &quot;Arial&quot;;"
       textLength="45.91px"
       lengthAdjust="spacingAndGlyphs"
       id="text185">Ecoli80</text>
  </g>
  <g
     clip-path="url(#cpMC4wMHw0NzYuMjV8MC4wMHwzNDYuNTA=)"
     id="g189" />
  <defs
     id="defs194">
    <clipPath
       id="cpMTk1Ljc4fDMzMC41NHw1LjQ4fDI3LjIx">
      <rect
         x="195.78"
         y="5.48"
         width="134.76"
         height="21.73"
         id="rect191" />
    </clipPath>
  </defs>
  <g
     clip-path="url(#cpMTk1Ljc4fDMzMC41NHw1LjQ4fDI3LjIx)"
     id="g200">
    <rect
       x="195.78"
       y="5.48"
       width="134.76"
       height="21.73"
       style="stroke-width: 2.13; fill: #FFFFFF;"
       id="rect196" />
    <text
       x="238.28"
       y="19.89"
       style="font-size: 14.00px; font-family: &quot;Arial&quot;;"
       textLength="49.76px"
       lengthAdjust="spacingAndGlyphs"
       id="text198">NTPCM</text>
  </g>
  <g
     clip-path="url(#cpMC4wMHw0NzYuMjV8MC4wMHwzNDYuNTA=)"
     id="g202" />
  <defs
     id="defs207">
    <clipPath
       id="cpMzM2LjAxfDQ3MC43N3w1LjQ4fDI3LjIx">
      <rect
         x="336.01"
         y="5.48"
         width="134.76"
         height="21.73"
         id="rect204" />
    </clipPath>
  </defs>
  <g
     clip-path="url(#cpMzM2LjAxfDQ3MC43N3w1LjQ4fDI3LjIx)"
     id="g213">
    <rect
       x="336.01"
       y="5.48"
       width="134.76"
       height="21.73"
       style="stroke-width: 2.13; fill: #FFFFFF;"
       id="rect209" />
    <text
       x="380.08"
       y="19.89"
       style="font-size: 14.00px; font-family: &quot;Arial&quot;;"
       textLength="46.63px"
       lengthAdjust="spacingAndGlyphs"
       id="text211">WMCM</text>
  </g>
  <g
     clip-path="url(#cpMC4wMHw0NzYuMjV8MC4wMHwzNDYuNTA=)"
     id="g307">
    <polyline
       points="55.54,303.70 190.30,303.70 "
       style="stroke-width: 1.07; stroke-linecap: butt;"
       id="polyline215" />
    <polyline
       points="73.92,306.44 73.92,303.70 "
       style="stroke-width: 1.07; stroke-linecap: butt;"
       id="polyline217" />
    <polyline
       points="98.42,306.44 98.42,303.70 "
       style="stroke-width: 1.07; stroke-linecap: butt;"
       id="polyline219" />
    <polyline
       points="122.92,306.44 122.92,303.70 "
       style="stroke-width: 1.07; stroke-linecap: butt;"
       id="polyline221" />
    <polyline
       points="147.42,306.44 147.42,303.70 "
       style="stroke-width: 1.07; stroke-linecap: butt;"
       id="polyline223" />
    <polyline
       points="171.92,306.44 171.92,303.70 "
       style="stroke-width: 1.07; stroke-linecap: butt;"
       id="polyline225" />
    <text
       x="73.92"
       y="320.09"
       text-anchor="middle"
       style="font-size: 16.00px; font-family: &quot;Arial&quot;;"
       textLength="17.80px"
       lengthAdjust="spacingAndGlyphs"
       id="text227">30</text>
    <text
       x="98.42"
       y="320.09"
       text-anchor="middle"
       style="font-size: 16.00px; font-family: &quot;Arial&quot;;"
       textLength="17.80px"
       lengthAdjust="spacingAndGlyphs"
       id="text229">40</text>
    <text
       x="122.92"
       y="320.09"
       text-anchor="middle"
       style="font-size: 16.00px; font-family: &quot;Arial&quot;;"
       textLength="17.80px"
       lengthAdjust="spacingAndGlyphs"
       id="text231">50</text>
    <text
       x="147.42"
       y="320.09"
       text-anchor="middle"
       style="font-size: 16.00px; font-family: &quot;Arial&quot;;"
       textLength="17.80px"
       lengthAdjust="spacingAndGlyphs"
       id="text233">60</text>
    <text
       x="171.92"
       y="320.09"
       text-anchor="middle"
       style="font-size: 16.00px; font-family: &quot;Arial&quot;;"
       textLength="17.80px"
       lengthAdjust="spacingAndGlyphs"
       id="text235">70</text>
    <polyline
       points="195.78,303.70 330.54,303.70 "
       style="stroke-width: 1.07; stroke-linecap: butt;"
       id="polyline237" />
    <polyline
       points="214.16,306.44 214.16,303.70 "
       style="stroke-width: 1.07; stroke-linecap: butt;"
       id="polyline239" />
    <polyline
       points="238.66,306.44 238.66,303.70 "
       style="stroke-width: 1.07; stroke-linecap: butt;"
       id="polyline241" />
    <polyline
       points="263.16,306.44 263.16,303.70 "
       style="stroke-width: 1.07; stroke-linecap: butt;"
       id="polyline243" />
    <polyline
       points="287.66,306.44 287.66,303.70 "
       style="stroke-width: 1.07; stroke-linecap: butt;"
       id="polyline245" />
    <polyline
       points="312.16,306.44 312.16,303.70 "
       style="stroke-width: 1.07; stroke-linecap: butt;"
       id="polyline247" />
    <text
       x="214.16"
       y="320.09"
       text-anchor="middle"
       style="font-size: 16.00px; font-family: &quot;Arial&quot;;"
       textLength="17.80px"
       lengthAdjust="spacingAndGlyphs"
       id="text249">30</text>
    <text
       x="238.66"
       y="320.09"
       text-anchor="middle"
       style="font-size: 16.00px; font-family: &quot;Arial&quot;;"
       textLength="17.80px"
       lengthAdjust="spacingAndGlyphs"
       id="text251">40</text>
    <text
       x="263.16"
       y="320.09"
       text-anchor="middle"
       style="font-size: 16.00px; font-family: &quot;Arial&quot;;"
       textLength="17.80px"
       lengthAdjust="spacingAndGlyphs"
       id="text253">50</text>
    <text
       x="287.66"
       y="320.09"
       text-anchor="middle"
       style="font-size: 16.00px; font-family: &quot;Arial&quot;;"
       textLength="17.80px"
       lengthAdjust="spacingAndGlyphs"
       id="text255">60</text>
    <text
       x="312.16"
       y="320.09"
       text-anchor="middle"
       style="font-size: 16.00px; font-family: &quot;Arial&quot;;"
       textLength="17.80px"
       lengthAdjust="spacingAndGlyphs"
       id="text257">70</text>
    <polyline
       points="336.01,303.70 470.77,303.70 "
       style="stroke-width: 1.07; stroke-linecap: butt;"
       id="polyline259" />
    <polyline
       points="354.39,306.44 354.39,303.70 "
       style="stroke-width: 1.07; stroke-linecap: butt;"
       id="polyline261" />
    <polyline
       points="378.89,306.44 378.89,303.70 "
       style="stroke-width: 1.07; stroke-linecap: butt;"
       id="polyline263" />
    <polyline
       points="403.39,306.44 403.39,303.70 "
       style="stroke-width: 1.07; stroke-linecap: butt;"
       id="polyline265" />
    <polyline
       points="427.89,306.44 427.89,303.70 "
       style="stroke-width: 1.07; stroke-linecap: butt;"
       id="polyline267" />
    <polyline
       points="452.39,306.44 452.39,303.70 "
       style="stroke-width: 1.07; stroke-linecap: butt;"
       id="polyline269" />
    <text
       x="354.39"
       y="320.09"
       text-anchor="middle"
       style="font-size: 16.00px; font-family: &quot;Arial&quot;;"
       textLength="17.80px"
       lengthAdjust="spacingAndGlyphs"
       id="text271">30</text>
    <text
       x="378.89"
       y="320.09"
       text-anchor="middle"
       style="font-size: 16.00px; font-family: &quot;Arial&quot;;"
       textLength="17.80px"
       lengthAdjust="spacingAndGlyphs"
       id="text273">40</text>
    <text
       x="403.39"
       y="320.09"
       text-anchor="middle"
       style="font-size: 16.00px; font-family: &quot;Arial&quot;;"
       textLength="17.80px"
       lengthAdjust="spacingAndGlyphs"
       id="text275">50</text>
    <text
       x="427.89"
       y="320.09"
       text-anchor="middle"
       style="font-size: 16.00px; font-family: &quot;Arial&quot;;"
       textLength="17.80px"
       lengthAdjust="spacingAndGlyphs"
       id="text277">60</text>
    <text
       x="452.39"
       y="320.09"
       text-anchor="middle"
       style="font-size: 16.00px; font-family: &quot;Arial&quot;;"
       textLength="17.80px"
       lengthAdjust="spacingAndGlyphs"
       id="text279">70</text>
    <polyline
       points="55.54,303.70 55.54,27.21 "
       style="stroke-width: 1.07; stroke-linecap: butt;"
       id="polyline281" />
    <text
       x="50.61"
       y="272.92"
       text-anchor="end"
       style="font-size: 16.00px; font-family: &quot;Arial&quot;;"
       textLength="27.57px"
       lengthAdjust="spacingAndGlyphs"
       id="text283">-0.5</text>
    <text
       x="50.61"
       y="213.08"
       text-anchor="end"
       style="font-size: 16.00px; font-family: &quot;Arial&quot;;"
       textLength="22.24px"
       lengthAdjust="spacingAndGlyphs"
       id="text285">0.0</text>
    <text
       x="50.61"
       y="153.23"
       text-anchor="end"
       style="font-size: 16.00px; font-family: &quot;Arial&quot;;"
       textLength="22.24px"
       lengthAdjust="spacingAndGlyphs"
       id="text287">0.5</text>
    <text
       x="50.61"
       y="93.39"
       text-anchor="end"
       style="font-size: 16.00px; font-family: &quot;Arial&quot;;"
       textLength="22.24px"
       lengthAdjust="spacingAndGlyphs"
       id="text289">1.0</text>
    <text
       x="50.61"
       y="33.54"
       text-anchor="end"
       style="font-size: 16.00px; font-family: &quot;Arial&quot;;"
       textLength="22.24px"
       lengthAdjust="spacingAndGlyphs"
       id="text291">1.5</text>
    <polyline
       points="52.80,267.19 55.54,267.19 "
       style="stroke-width: 1.07; stroke-linecap: butt;"
       id="polyline293" />
    <polyline
       points="52.80,207.35 55.54,207.35 "
       style="stroke-width: 1.07; stroke-linecap: butt;"
       id="polyline295" />
    <polyline
       points="52.80,147.50 55.54,147.50 "
       style="stroke-width: 1.07; stroke-linecap: butt;"
       id="polyline297" />
    <polyline
       points="52.80,87.66 55.54,87.66 "
       style="stroke-width: 1.07; stroke-linecap: butt;"
       id="polyline299" />
    <polyline
       points="52.80,27.81 55.54,27.81 "
       style="stroke-width: 1.07; stroke-linecap: butt;"
       id="polyline301" />
    <text
       x="263.16"
       y="337.65"
       text-anchor="middle"
       style="font-size: 16.00px; font-family: &quot;Arial&quot;;"
       textLength="108.48px"
       lengthAdjust="spacingAndGlyphs"
       id="text303">AU content (%)</text>
    <text
       transform="matrix(0,-0.78026151,1,0,16.93,154.18465)"
       text-anchor="middle"
       style="font-size:16px;font-family:Arial"
       textLength="104.02"
       lengthAdjust="spacingAndGlyphs"
       id="text305">G (kcal/mol)</text>
  </g>
  <text
     xml:space="preserve"
     style="font-size:16px;line-height:1.25;font-family:sans-serif;stroke-width:0.75"
     x="-216.69009"
     y="17.751789"
     id="text5790"
     transform="rotate(-89.80887)"><tspan
       sodipodi:role="line"
       id="tspan5788"
       style="font-size:16px;stroke-width:0.75"
       x="-216.69009"
       y="17.751789">ΔΔ</tspan></text>
</svg>
